<svg xmlns="http://www.w3.org/2000/svg" width="18" height="17" viewBox="0 0 18 17"><path fill="#fff" d="M18 8.11V7.3c0-.22-.17-.4-.37-.4h-2.72V4.05c0-.22-.17-.4-.37-.4h-.78c-.2 0-.37.18-.37.4V6.9h-2.72c-.2 0-.37.18-.37.4v.81c0 .22.17.39.37.39h2.72v2.86c0 .22.17.39.37.39h.78c.2 0 .37-.17.37-.39V8.5h2.72c.2 0 .37-.17.37-.39zM10.56.71c.13-.1.19-.27.13-.44a.37.37 0 0 0-.35-.27H5.56c-.52 0-1.05.1-1.57.28-1.74.64-2.96 2.19-2.96 3.79a3.93 3.93 0 0 0 3.91 4.04 2.03 2.03 0 0 0 .19 1.54h-.06c-2.13 0-4.06 1.09-4.78 2.73-.2.42-.29.85-.29 1.28 0 .41.1.81.3 1.18.46.86 1.44 1.53 2.77 1.88.69.19 1.43.28 2.19.28.69 0 1.35-.09 1.96-.28 1.89-.58 3.11-2.04 3.11-3.73 0-1.62-.49-2.6-1.83-3.59-.57-.42-1.09-1.04-1.1-1.24 0-.35.03-.51.78-1.12a3.8 3.8 0 0 0 1.49-2.93c0-1-.29-1.89-.78-2.51h.38c.08 0 .16-.02.22-.07zM5.52 10.9h.05c.35.01.7.06 1.02.17l.33.23c.75.54 1.25.89 1.38 1.47.04.14.05.28.05.42 0 1.47-1.04 2.22-3.1 2.22-1.56 0-2.78-1.01-2.78-2.29 0-1.18 1.43-2.22 3.05-2.22zm1.22-4.55c-.26.3-.59.47-.98.47h-.01C4.71 6.78 3.68 5.5 3.5 4.01c-.11-.83.06-1.57.45-2.04.26-.31.59-.47.96-.47h.04c1.06.03 2.07 1.27 2.26 2.76.1.83-.08 1.61-.47 2.09z"/></svg>