<svg xmlns="http://www.w3.org/2000/svg" width="60" height="61" viewBox="0 0 60 61"><path fill="#252525" fill-opacity=".2" d="M0 31c0 16.54 13.46 30 30 30s30-13.46 30-30S46.54 1 30 1 0 14.46 0 31zm2.4 0A27.63 27.63 0 0 1 30 3.4 27.63 27.63 0 0 1 57.6 31 27.63 27.63 0 0 1 30 58.6 27.63 27.63 0 0 1 2.4 31z"/><path fill="#272727" d="M34.99 31.48c0-.3-.11-.6-.32-.84l-7.79-8.3a1.07 1.07 0 0 0-1.58 0 1.25 1.25 0 0 0 0 1.68l7 7.46-7 7.46a1.25 1.25 0 0 0 0 1.68c.44.46 1.14.46 1.58 0l7.79-8.3c.21-.23.32-.54.32-.84z"/></svg>