<svg xmlns="http://www.w3.org/2000/svg" width="61" height="61" viewBox="0 0 61 61"><path fill="#222" fill-opacity=".2" d="M1 31c0 16.54 13.46 30 30 30s30-13.46 30-30S47.54 1 31 1 1 14.46 1 31zm2.4 0A27.63 27.63 0 0 1 31 3.4 27.63 27.63 0 0 1 58.6 31 27.63 27.63 0 0 1 31 58.6 27.63 27.63 0 0 1 3.4 31z"/><path fill="#2a2a2a" fill-opacity=".2" d="M26 31.48c0-.3.12-.6.33-.84l7.8-8.3a1.07 1.07 0 0 1 1.57 0c.43.46.43 1.21 0 1.68l-7 7.46 7 7.46c.43.46.43 1.21 0 1.68-.44.46-1.14.46-1.58 0l-7.79-8.3a1.22 1.22 0 0 1-.32-.84z"/></svg>